<?xml version="1.0" standalone="no"?>
<!DOCTYPE svg PUBLIC "-//W3C//DTD SVG 20010904//EN"
 "http://www.w3.org/TR/2001/REC-SVG-20010904/DTD/svg10.dtd">
<svg version="1.0" xmlns="http://www.w3.org/2000/svg"
 width="5000.000000pt" height="4000.000000pt" viewBox="0 0 5000.000000 4000.000000"
 preserveAspectRatio="xMidYMid meet">

<g transform="translate(0.000000,4000.000000) scale(0.100000,-0.100000)"
fill="#000000" stroke="none">
<path d="M32350 26624 c-36 -2 -159 -8 -275 -14 -364 -18 -829 -62 -1170 -111
-1766 -252 -3214 -815 -4395 -1708 -509 -385 -986 -866 -1383 -1392 l-117
-157 2 -380 3 -380 120 161 c66 88 125 165 130 171 6 6 44 52 85 101 174 212
494 543 725 751 483 434 1033 803 1667 1120 136 68 249 124 252 124 3 0 33 13
68 29 834 382 1907 673 2993 811 703 89 1196 115 2000 107 760 -8 1339 -50
1953 -143 57 -9 107 -12 112 -8 8 10 180 694 180 717 0 10 -45 21 -167 40
-438 69 -834 110 -1423 148 -158 10 -1225 20 -1360 13z"/>
<path d="M32220 25068 c-129 -5 -236 -13 -238 -17 -1 -3 -19 -5 -40 -3 -20 2
-84 -2 -142 -7 -58 -6 -118 -11 -133 -11 -47 1 -418 -38 -622 -65 -258 -33
-473 -67 -700 -110 -179 -34 -223 -43 -320 -65 -22 -6 -101 -23 -175 -40 -74
-17 -142 -34 -150 -37 -8 -3 -21 -5 -27 -4 -7 1 -13 -3 -13 -9 0 -6 -4 -8 -10
-5 -5 3 -33 -1 -62 -10 -29 -9 -64 -18 -78 -21 -117 -22 -714 -210 -830 -261
-19 -9 -40 -17 -47 -19 -16 -3 -204 -75 -313 -119 -47 -18 -84 -38 -83 -43 1
-6 -7 -7 -19 -4 -16 4 -19 2 -13 -8 5 -8 4 -11 -2 -7 -10 6 -80 -19 -173 -63
-25 -12 -61 -29 -82 -38 -20 -9 -34 -21 -31 -26 4 -5 1 -6 -6 -2 -6 4 -23 0
-37 -9 -14 -9 -40 -22 -58 -28 -62 -23 -296 -149 -291 -157 3 -5 0 -12 -6 -16
-8 -4 -9 -3 -5 4 4 7 3 12 -1 12 -21 0 -318 -179 -315 -190 1 -6 -2 -9 -8 -5
-11 7 -37 -8 -155 -83 -153 -98 -175 -114 -168 -125 3 -6 1 -7 -6 -3 -6 4 -38
-11 -74 -35 -84 -58 -354 -259 -410 -306 -24 -21 -87 -74 -140 -117 -53 -44
-93 -84 -90 -89 3 -6 1 -7 -5 -3 -12 7 -159 -123 -154 -136 1 -5 -4 -8 -11 -8
-18 0 -49 -35 -40 -44 5 -4 3 -6 -4 -4 -16 4 -185 -161 -177 -174 4 -7 2 -8
-5 -4 -11 7 -68 -51 -63 -66 1 -4 -4 -7 -10 -6 -7 2 -11 -4 -10 -12 2 -8 0
-12 -4 -7 -10 9 -65 -43 -58 -55 3 -5 2 -7 -3 -6 -14 5 -134 -132 -127 -144 4
-6 3 -8 -3 -5 -5 4 -19 -4 -29 -16 -48 -57 -120 -143 -126 -152 -5 -5 -35 -43
-68 -83 -33 -40 -57 -78 -54 -84 4 -6 3 -8 -3 -5 -9 6 -48 -42 -145 -180 l-38
-53 0 -376 0 -377 41 58 c67 95 324 424 348 445 36 31 199 229 193 235 -4 5
-2 5 4 2 14 -8 57 41 48 55 -4 6 -3 8 3 5 6 -4 83 64 171 151 89 86 192 184
231 217 53 46 68 65 65 80 -4 15 -3 16 4 6 9 -13 29 2 247 185 22 18 85 67
140 108 55 42 107 82 116 91 9 8 20 15 26 15 5 0 22 11 36 24 14 13 29 26 34
27 4 2 58 38 118 79 154 105 262 175 317 206 26 15 45 31 41 37 -3 6 -1 7 5 3
15 -9 123 55 115 68 -3 5 -1 6 6 2 6 -4 28 2 49 15 67 39 96 55 210 114 65 33
109 62 105 68 -3 5 -1 7 5 3 6 -3 77 26 159 65 213 102 249 119 256 119 3 0
38 15 79 34 40 18 88 39 105 46 18 7 30 16 27 21 -3 5 2 6 10 3 8 -3 29 2 48
12 18 10 40 19 48 20 15 2 130 45 185 69 17 7 66 25 110 40 329 111 401 135
412 135 7 0 13 5 13 11 0 5 5 7 10 4 6 -4 54 7 108 24 134 43 517 144 592 158
14 2 43 9 65 14 42 11 455 98 490 103 11 2 33 4 48 5 16 0 25 5 22 11 -3 6 1
7 9 4 13 -5 143 13 336 46 58 10 497 64 615 75 39 4 81 9 95 10 14 2 97 8 185
14 88 7 177 14 197 16 20 2 113 7 205 11 92 3 186 7 208 9 65 5 1057 6 1090 1
17 -3 111 -8 210 -11 99 -3 203 -8 230 -10 90 -9 454 -35 462 -34 4 1 15 0 23
-3 8 -3 112 -16 230 -28 118 -12 289 -33 379 -46 91 -13 168 -21 171 -17 4 5
30 107 60 228 29 121 68 280 87 354 19 74 31 137 26 141 -4 4 -39 13 -78 19
-222 34 -488 71 -543 76 -34 2 -73 7 -85 10 -66 15 -654 63 -871 71 -71 2
-133 7 -138 10 -17 11 -1117 13 -1358 2z"/>
</g>
</svg>
